<svg width="9" height="9" viewBox="0 0 9 9" fill="none" xmlns="http://www.w3.org/2000/svg">
<path fill-rule="evenodd" clip-rule="evenodd" d="M4.61967 6.41024C5.0617 6.41024 5.48562 6.23464 5.79818 5.92208C6.11074 5.60952 6.28634 5.1856 6.28634 4.74357C6.28634 4.30154 6.11074 3.87762 5.79818 3.56506C5.48562 3.2525 5.0617 3.0769 4.61967 3.0769C4.17764 3.0769 3.75372 3.2525 3.44116 3.56506C3.1286 3.87762 2.953 4.30154 2.953 4.74357C2.953 5.1856 3.1286 5.60952 3.44116 5.92208C3.75372 6.23464 4.17764 6.41024 4.61967 6.41024ZM8.78634 4.74357C8.78634 5.84864 8.34735 6.90845 7.56595 7.68985C6.78455 8.47125 5.72474 8.91024 4.61967 8.91024C3.5146 8.91024 2.45479 8.47125 1.67339 7.68985C0.89199 6.90845 0.453003 5.84864 0.453003 4.74357C0.453003 3.6385 0.89199 2.57869 1.67339 1.79729C2.45479 1.01589 3.5146 0.576904 4.61967 0.576904C5.72474 0.576904 6.78455 1.01589 7.56595 1.79729C8.34735 2.57869 8.78634 3.6385 8.78634 4.74357Z" fill="black"/>
</svg>
