<svg width="15" height="15" viewBox="0 0 15 15" fill="none" xmlns="http://www.w3.org/2000/svg">
<path d="M14.1464 0.160156H1.09304C0.646377 0.160156 0.286377 0.520156 0.286377 0.966823V14.0135C0.286377 14.4668 0.646377 14.8268 1.09304 14.8268H8.11971V9.15349H6.21971V6.93349H8.12638V5.30016C8.12638 3.40682 9.28638 2.37349 10.973 2.37349C11.5397 2.37349 12.113 2.40016 12.6797 2.46016V4.44016H11.513C10.593 4.44016 10.413 4.87349 10.413 5.52016V6.93349H12.613L12.3264 9.15349H10.3997V14.8268H14.1397C14.5864 14.8268 14.9464 14.4668 14.9464 14.0202V0.966823C14.953 0.520156 14.593 0.160156 14.1464 0.160156Z" fill="white"/>
</svg>
