<svg width="16" height="16" viewBox="0 0 16 16" fill="none" xmlns="http://www.w3.org/2000/svg">
<path d="M8.17965 0.6604C4.11298 0.6604 0.846313 3.92707 0.846313 7.99373C0.846313 12.0604 4.11298 15.3271 8.17965 15.3271C12.2463 15.3271 15.513 12.0604 15.513 7.99373C15.513 3.92707 12.2463 0.6604 8.17965 0.6604ZM13.513 7.99373C13.513 8.4604 13.4463 8.92707 13.313 9.32707C12.913 8.32707 12.2463 7.2604 11.313 6.19373L12.513 4.99373C13.1796 5.8604 13.513 6.8604 13.513 7.99373ZM4.51298 4.32707C5.37965 4.32707 6.91298 4.8604 8.51298 6.2604L6.37965 8.39373C4.91298 6.52707 4.51298 4.99373 4.51298 4.32707ZM9.91298 7.6604C11.4463 9.4604 11.8463 10.9937 11.8463 11.6604C10.9796 11.6604 9.44631 11.1271 7.84631 9.72707L9.91298 7.6604ZM11.1796 3.59373L9.91298 4.8604C8.84631 3.92707 7.77965 3.2604 6.77965 2.8604C7.24631 2.72707 7.64631 2.6604 8.11298 2.6604C9.31298 2.6604 10.313 2.99373 11.1796 3.59373ZM2.84631 7.99373C2.84631 7.52707 2.91298 7.0604 3.04631 6.6604C3.44631 7.6604 4.11298 8.72707 5.04631 9.79373L3.84631 10.9937C3.17965 10.1271 2.84631 9.12707 2.84631 7.99373ZM5.17965 12.3937L6.44631 11.1271C7.51298 12.0604 8.57965 12.7271 9.57965 13.1271C9.11298 13.2604 8.71298 13.3271 8.24631 13.3271C7.04631 13.3271 6.04631 12.9937 5.17965 12.3937Z" fill="white"/>
</svg>
