<svg width="16" height="15" viewBox="0 0 16 15" fill="none" xmlns="http://www.w3.org/2000/svg">
<path d="M14.1098 1.39351C12.7098 -0.0131516 10.8298 0.160182 8.00975 0.160182C5.36975 0.160182 3.34308 -0.0464851 1.90975 1.39351C0.503084 2.79351 0.676417 4.67352 0.676417 7.49352C0.676417 10.1268 0.46975 12.1602 1.90975 13.5935C3.30975 15.0002 5.18975 14.8268 8.00975 14.8268C10.6498 14.8268 12.6764 15.0335 14.1098 13.5935C15.5098 12.1935 15.3431 10.3135 15.3431 7.49352C15.3431 4.62018 15.5031 2.78018 14.1098 1.39351ZM13.1764 12.6602C12.2631 13.5735 11.0564 13.5068 8.00975 13.5068C5.14975 13.5068 3.78308 13.6068 2.84308 12.6602C1.88308 11.7002 1.99642 10.3202 1.99642 7.49352C1.99642 4.67352 1.89642 3.27351 2.84308 2.32685C3.78308 1.38685 5.07642 1.48018 8.00975 1.48018C10.8298 1.48018 12.2298 1.38018 13.1764 2.32685C14.0964 3.24685 14.0231 4.47352 14.0231 7.49352C14.0231 10.3202 14.1231 11.7202 13.1764 12.6602Z" fill="white"/>
<path d="M8.00971 3.72686C7.01064 3.72695 6.05252 4.12391 5.34614 4.83043C4.63975 5.53694 4.24295 6.49513 4.24304 7.4942C4.24313 8.49327 4.64009 9.45138 5.34661 10.1578C6.05312 10.8642 7.01131 11.261 8.01038 11.2609C9.00945 11.2608 9.96756 10.8638 10.6739 10.1573C11.3803 9.45079 11.7771 8.4926 11.777 7.49353C11.777 6.49446 11.38 5.53634 10.6735 4.82996C9.96697 4.12357 9.00878 3.72677 8.00971 3.72686ZM8.00971 9.9402C6.66304 9.9402 5.56304 8.84686 5.56304 7.49353C5.56304 6.1402 6.65638 5.04686 8.00971 5.04686C9.36304 5.04686 10.4564 6.1402 10.4564 7.49353C10.4564 8.8402 9.35638 9.9402 8.00971 9.9402ZM11.923 2.7002C11.4364 2.7002 11.043 3.09353 11.043 3.5802C11.043 4.06686 11.4364 4.4602 11.923 4.4602C12.4097 4.4602 12.803 4.06686 12.803 3.5802C12.803 3.09353 12.4097 2.7002 11.923 2.7002Z" fill="white"/>
</svg>
