<svg width="15" height="15" viewBox="0 0 15 15" fill="none" xmlns="http://www.w3.org/2000/svg">
<path d="M13.6463 0.160156H1.14628C0.552951 0.160156 0.0662842 0.633489 0.0662842 1.21349V13.7668C0.0662842 14.3535 0.552951 14.8268 1.14628 14.8268H13.6463C14.2463 14.8268 14.733 14.3535 14.733 13.7668V1.21349C14.733 0.633489 14.2463 0.160156 13.6463 0.160156ZM4.41962 12.6602H2.23962V5.66016H4.41962V12.6602ZM3.32628 4.70016C2.63295 4.70016 2.06628 4.13349 2.06628 3.44016C2.06628 2.74682 2.62628 2.18016 3.32628 2.18016C4.01962 2.18016 4.58628 2.74682 4.58628 3.44016C4.59295 4.13349 4.02628 4.70016 3.32628 4.70016ZM12.5663 12.6602H10.393V9.26016C10.393 8.44682 10.3796 7.40682 9.25962 7.40682C8.12628 7.40682 7.95295 8.29349 7.95295 9.20682V12.6668H5.77962V5.66682H7.86628V6.62016H7.89295C8.18628 6.06682 8.89295 5.48682 9.95295 5.48682C12.153 5.48682 12.5596 6.93349 12.5596 8.82016V12.6602H12.5663Z" fill="white"/>
</svg>
