<svg width="16" height="11" viewBox="0 0 16 11" fill="none" xmlns="http://www.w3.org/2000/svg">
<path d="M15.143 5.49349C15.143 5.49349 15.143 2.92682 14.8363 1.77349C14.6697 1.14016 14.1697 0.640156 13.543 0.466823C12.3963 0.160156 7.80965 0.160156 7.80965 0.160156C7.80965 0.160156 3.22299 0.160156 2.07632 0.466823C1.44299 0.63349 0.949652 1.14016 0.782985 1.77349C0.476318 2.92682 0.476318 5.49349 0.476318 5.49349C0.476318 5.49349 0.502985 8.06016 0.809652 9.21349C0.976318 9.84682 1.47632 10.3468 2.10965 10.5202C3.24965 10.8268 7.83632 10.8268 7.83632 10.8268C7.83632 10.8268 12.423 10.8268 13.5697 10.5202C14.203 10.3535 14.6963 9.84682 14.863 9.21349C15.1697 8.06016 15.143 5.49349 15.143 5.49349ZM6.47632 7.67349V3.31349L10.143 5.49349L6.47632 7.67349Z" fill="white"/>
</svg>
